<svg width="148" height="60" viewBox="0 0 148 60" fill="none" xmlns="http://www.w3.org/2000/svg">
<mask id="mask0_40_120" style="mask-type:luminance" maskUnits="userSpaceOnUse" x="92" y="3" width="56" height="54">
<path d="M124.833 13.4682C127.468 14.5301 129.764 16.2906 131.473 18.5602C133.182 20.8298 134.239 23.5225 134.532 26.3485C134.824 29.1745 134.34 32.0267 133.132 34.5982C131.924 37.1696 130.038 39.3629 127.676 40.9419C125.314 42.5209 122.566 43.4258 119.728 43.5592C116.89 43.6927 114.07 43.0496 111.57 41.6992C109.07 40.3488 106.986 38.3422 105.542 35.8955C104.098 33.4487 103.349 30.6545 103.375 27.8135C103.378 27.0144 103.444 26.2167 103.572 25.4279L92.6127 37.9967C95.1507 44.521 100.005 49.8807 106.247 53.0505C112.489 56.2202 119.68 56.9774 126.445 55.1774C130.412 54.1703 134.11 52.3087 137.281 49.7229C140.452 47.1372 143.02 43.8896 144.805 40.2075C146.59 36.5254 147.549 32.4978 147.615 28.4063C147.68 24.3149 146.851 20.2586 145.185 16.5212C142.666 10.9437 138.372 6.35643 132.973 3.47437L124.833 13.4682Z" fill="white"/>
</mask>
<g mask="url(#mask0_40_120)">
<path d="M152.351 3.47437H92.6048V58.8347H152.351V3.47437Z" fill="url(#paint0_linear_40_120)"/>
</g>
<path d="M130.87 2.45987L122.474 12.7787C121.524 12.5824 120.557 12.4804 119.587 12.4742C115.249 12.409 111.061 14.0624 107.938 17.0735L97.881 28.8612C99.0813 26.3987 99.4979 23.6274 99.0748 20.9209C98.6516 18.2143 97.409 15.7024 95.5143 13.7238C95.1483 13.3388 94.8705 13.1511 94.6039 13.1447C95.4001 12.1981 96.1954 11.2514 96.9896 10.3047C101.03 5.51322 106.514 2.15978 112.621 0.746672C118.727 -0.666434 125.127 -0.0631476 130.862 2.46618L130.87 2.45987Z" fill="white"/>
<path d="M95.5237 13.7221C95.153 13.3403 94.8768 13.1494 94.6118 13.1447C85.6193 23.8642 76.5633 34.5328 67.4436 45.1504C66.5363 45.3787 65.5889 45.3972 64.6735 45.2044C63.758 45.0117 62.8985 44.6126 62.1604 44.0378C61.4223 43.4629 60.825 42.7273 60.4139 41.8869C60.0028 41.0465 59.7888 40.1234 59.7881 39.1879C59.7881 39.0553 59.7881 38.9259 59.8007 38.7981C59.8007 38.6987 59.8165 38.6009 59.8259 38.4999C59.8263 38.4765 59.8295 38.4532 59.8354 38.4305C60.0074 38.2286 60.1762 38.025 60.3482 37.8262C61.4411 36.5335 62.5345 35.2433 63.6285 33.9559L64.1886 33.29C67.0286 29.9451 69.8734 26.6033 72.7229 23.2647L72.9785 22.9665C77.308 17.8912 81.6396 12.8165 85.9733 7.74225C86.1917 7.51765 86.3591 7.24856 86.464 6.95335C86.3993 6.71826 86.1784 6.49894 85.7761 6.23387C83.3558 4.62877 80.4605 3.8972 77.5683 4.15997C74.6761 4.42275 71.96 5.66414 69.8687 7.67914C68.6064 8.92718 67.483 10.3172 66.3281 11.6662C62.868 15.7165 59.4236 19.7809 55.8104 24.0283C55.7773 23.9479 55.7473 23.8706 55.7205 23.8059C55.4649 23.1747 55.2835 22.7282 55.1083 22.2754C53.0675 16.8724 49.4284 12.2198 44.676 8.9377C39.9236 5.65565 34.2837 3.90008 28.5082 3.90504C26.0333 3.90625 23.5686 4.22117 21.1729 4.84226C17.2069 5.84932 13.5088 7.71087 10.3374 10.2967C7.166 12.8825 4.59797 16.13 2.81298 19.8121C1.028 23.4942 0.0691748 27.5219 0.00360623 31.6133C-0.0619623 35.7047 0.767304 39.761 2.43339 43.4984C11.0813 62.4857 37.1703 65.7959 50.6116 49.7213C50.812 49.4783 51.0123 49.2479 51.2111 48.9986C52.784 51.398 54.917 53.3787 57.4261 54.7698C59.9352 56.161 62.7451 56.9209 65.6133 56.9839C65.7459 56.9839 65.8831 56.9839 66.0188 56.9839C70.4831 56.9881 74.7834 55.3013 78.0543 52.2631L80.8549 48.9497C80.9496 48.8098 81.0395 48.6673 81.1247 48.5221C81.1799 48.4622 81.2304 48.3975 81.2825 48.3344C84.2519 44.8632 87.2103 41.3747 90.276 37.7726L95.9229 31.1458L96.0223 31.029L97.8873 28.8438C99.0827 26.383 99.4969 23.6156 99.0744 20.9127C98.6519 18.2098 97.413 15.7007 95.5237 13.7221ZM28.1405 47.5423H28.0253C23.7386 47.5271 19.6331 45.8115 16.6101 42.7723C13.587 39.733 11.8934 35.6184 11.901 31.3317C11.9086 27.045 13.6169 22.9364 16.6508 19.908C19.6846 16.8795 23.7962 15.1785 28.0829 15.1785C32.3697 15.1785 36.4812 16.8795 39.5151 19.908C42.549 22.9364 44.2572 27.045 44.2648 31.3317C44.2725 35.6184 42.5789 39.733 39.5558 42.7723C36.5327 45.8115 32.4272 47.5271 28.1405 47.5423Z" fill="url(#paint1_linear_40_120)"/>
<defs>
<linearGradient id="paint0_linear_40_120" x1="-613.72" y1="237.649" x2="-613.362" y2="237.649" gradientUnits="userSpaceOnUse">
<stop stop-color="#9C0C19"/>
<stop offset="1" stop-color="#D00C1B"/>
</linearGradient>
<linearGradient id="paint1_linear_40_120" x1="0" y1="31.9525" x2="99.2353" y2="31.9525" gradientUnits="userSpaceOnUse">
<stop stop-color="#9C0C19"/>
<stop offset="1" stop-color="#D00C1B"/>
</linearGradient>
</defs>
</svg>
