<svg width="175" height="71" viewBox="0 0 175 71" fill="none" xmlns="http://www.w3.org/2000/svg">
<mask id="mask0_27_153" style="mask-type:luminance" maskUnits="userSpaceOnUse" x="109" y="4" width="66" height="63">
<path d="M147.719 15.9373C150.837 17.1939 153.554 19.2772 155.576 21.9629C157.598 24.6486 158.85 27.835 159.196 31.1791C159.542 34.5232 158.969 37.8983 157.54 40.9412C156.11 43.984 153.878 46.5794 151.083 48.4479C148.288 50.3163 145.037 51.3872 141.678 51.5451C138.32 51.703 134.982 50.942 132.024 49.344C129.067 47.746 126.6 45.3716 124.892 42.4763C123.183 39.581 122.296 36.2745 122.327 32.9127C122.33 31.967 122.408 31.0231 122.56 30.0897L109.592 44.9627C112.595 52.6832 118.339 59.0255 125.725 62.7764C133.112 66.5272 141.622 67.4233 149.627 65.2932C154.32 64.1015 158.696 61.8987 162.449 58.8388C166.202 55.779 169.241 51.936 171.353 47.5789C173.465 43.2217 174.6 38.4557 174.678 33.6142C174.755 28.7727 173.774 23.9727 171.802 19.5501C168.821 12.9501 163.74 7.52177 157.351 4.11133L147.719 15.9373Z" fill="white"/>
</mask>
<g mask="url(#mask0_27_153)">
<path d="M180.283 4.11133H109.582V69.6211H180.283V4.11133Z" fill="url(#paint0_linear_27_153)"/>
</g>
<path d="M154.862 2.91084L144.928 15.1215C143.803 14.8892 142.659 14.7685 141.511 14.7611C136.378 14.684 131.422 16.6404 127.726 20.2036L115.826 34.1525C117.246 31.2385 117.739 27.9591 117.238 24.7563C116.738 21.5535 115.267 18.5812 113.025 16.2398C112.592 15.7843 112.263 15.5621 111.948 15.5546C112.89 14.4344 113.831 13.3141 114.771 12.1939C119.552 6.52397 126.042 2.55574 133.268 0.883562C140.494 -0.788614 148.067 -0.0747246 154.853 2.91831L154.862 2.91084Z" fill="#121212"/>
<path d="M113.036 16.238C112.598 15.7862 112.271 15.5603 111.957 15.5547C101.316 28.2395 90.5999 40.864 79.8082 53.4281C78.7346 53.6983 77.6136 53.7202 76.5303 53.4921C75.4469 53.2639 74.4299 52.7918 73.5565 52.1115C72.6831 51.4312 71.9763 50.5608 71.4898 49.5663C71.0034 48.5718 70.7501 47.4795 70.7492 46.3724C70.7492 46.2156 70.7492 46.0625 70.7642 45.9113C70.7642 45.7936 70.7828 45.6779 70.794 45.5584C70.7945 45.5307 70.7983 45.5031 70.8053 45.4763C71.0088 45.2373 71.2085 44.9964 71.412 44.7612C72.7053 43.2314 73.9992 41.7048 75.2937 40.1812L75.9565 39.3933C79.3172 35.4352 82.6835 31.4807 86.0554 27.53L86.3579 27.1771C91.4811 21.1714 96.6068 15.1663 101.735 9.16181C101.994 8.89603 102.192 8.5776 102.316 8.22828C102.239 7.95008 101.978 7.69056 101.502 7.37689C98.6377 5.47753 95.2116 4.61183 91.7891 4.92278C88.3667 5.23372 85.1527 6.70271 82.6779 9.08713C81.1843 10.564 79.8549 12.2089 78.4882 13.8052C74.3937 18.598 70.3179 23.4075 66.0424 28.4337C66.0032 28.3384 65.9677 28.247 65.9359 28.1704C65.6335 27.4236 65.4188 26.8952 65.2115 26.3594C62.7966 19.9658 58.4903 14.4602 52.8666 10.5764C47.2429 6.69266 40.5691 4.61524 33.7346 4.62111C30.8061 4.62254 27.8895 4.99519 25.0547 5.73015C20.3615 6.92184 15.9854 9.12467 12.2326 12.1845C8.47976 15.2444 5.44093 19.0873 3.3287 23.4445C1.21646 27.8016 0.0818568 32.5677 0.00426738 37.4092C-0.0733221 42.2507 0.907977 47.0507 2.87951 51.4733C13.1129 73.9415 43.9848 77.8586 59.8904 58.837C60.1275 58.5494 60.3646 58.2769 60.5999 57.9819C62.4611 60.8211 64.9851 63.1649 67.9542 64.8111C70.9233 66.4573 74.2483 67.3565 77.6424 67.4311C77.7993 67.4311 77.9617 67.4311 78.1223 67.4311C83.405 67.436 88.4936 65.4401 92.3643 61.8448L95.6783 57.924C95.7903 57.7584 95.8967 57.5898 95.9976 57.418C96.0629 57.3471 96.1227 57.2705 96.1843 57.1958C99.6981 53.0883 103.199 48.9602 106.827 44.6977L113.509 36.856L113.626 36.7178L115.833 34.132C117.248 31.2201 117.738 27.9453 117.238 24.7468C116.738 21.5484 115.272 18.5794 113.036 16.238ZM33.2996 56.2585H33.1633C28.0907 56.2405 23.2326 54.2104 19.6553 50.614C16.078 47.0175 14.0738 42.1486 14.0829 37.076C14.0919 32.0033 16.1133 27.1416 19.7034 23.5579C23.2935 19.9742 28.1588 17.9614 33.2315 17.9614C38.3041 17.9614 43.1695 19.9742 46.7595 23.5579C50.3496 27.1416 52.371 32.0033 52.3801 37.076C52.3891 42.1486 50.385 47.0175 46.8077 50.614C43.2304 54.2104 38.3722 56.2405 33.2996 56.2585Z" fill="url(#paint1_linear_27_153)"/>
<defs>
<linearGradient id="paint0_linear_27_153" x1="-726.235" y1="281.218" x2="-725.811" y2="281.218" gradientUnits="userSpaceOnUse">
<stop stop-color="#9C0C19"/>
<stop offset="1" stop-color="#D00C1B"/>
</linearGradient>
<linearGradient id="paint1_linear_27_153" x1="0" y1="37.8106" x2="117.428" y2="37.8106" gradientUnits="userSpaceOnUse">
<stop stop-color="#9C0C19"/>
<stop offset="1" stop-color="#D00C1B"/>
</linearGradient>
</defs>
</svg>
