<svg width="24" height="24" viewBox="0 0 24 24" fill="none" xmlns="http://www.w3.org/2000/svg">
<g clip-path="url(#clip0_27_121)">
<path d="M22.2 19.862H1.8C1.32261 19.862 0.864773 19.6724 0.527208 19.3348C0.189642 18.9972 0 18.5394 0 18.062V5.93501C0 5.45762 0.189642 4.99978 0.527208 4.66222C0.864773 4.32465 1.32261 4.13501 1.8 4.13501H22.2C22.6774 4.13501 23.1352 4.32465 23.4728 4.66222C23.8104 4.99978 24 5.45762 24 5.93501V18.062C24 18.5394 23.8104 18.9972 23.4728 19.3348C23.1352 19.6724 22.6774 19.862 22.2 19.862Z" fill="#73AF00"/>
<path d="M4.966 9.48104C5.007 9.74204 5.166 9.82404 5.302 9.81404C5.38141 9.80518 5.45511 9.76848 5.51002 9.71045C5.56494 9.65241 5.59753 9.57681 5.602 9.49704V8.59704C5.60073 8.58558 5.60189 8.57398 5.60541 8.563C5.60892 8.55202 5.61471 8.5419 5.6224 8.53331C5.6301 8.52471 5.63951 8.51784 5.65004 8.51313C5.66057 8.50843 5.67197 8.50599 5.6835 8.50599C5.69503 8.50599 5.70644 8.50843 5.71696 8.51313C5.72749 8.51784 5.73691 8.52471 5.7446 8.53331C5.75229 8.5419 5.75808 8.55202 5.7616 8.563C5.76511 8.57398 5.76627 8.58558 5.765 8.59704V9.49704C5.76544 9.55007 5.77882 9.60221 5.80397 9.64891C5.82912 9.69561 5.86528 9.73545 5.90932 9.76501C5.95336 9.79457 6.00395 9.81294 6.05669 9.81852C6.10944 9.8241 6.16275 9.81673 6.212 9.79704L6.293 9.76403C6.301 10.517 6.255 11.179 6.254 11.191C6.25098 11.2341 6.26518 11.2767 6.29349 11.3093C6.32181 11.3419 6.36192 11.362 6.40501 11.365H6.417C6.45823 11.3651 6.49797 11.3496 6.52822 11.3216C6.55847 11.2936 6.57697 11.2551 6.58 11.214C6.58 11.161 6.634 10.436 6.619 9.63404L6.668 9.61404C6.68935 9.60569 6.71223 9.6019 6.73514 9.60293C6.75805 9.60397 6.78048 9.60979 6.801 9.62004C6.88846 9.66383 6.98749 9.679 7.08404 9.66339C7.1806 9.64777 7.2698 9.60216 7.339 9.53303L7.368 9.50404C7.43232 9.43998 7.47745 9.35922 7.4983 9.27087C7.51915 9.18252 7.51488 9.0901 7.486 9.00404L7.347 8.58703C7.3854 8.59721 7.42621 8.59301 7.46173 8.57522C7.49725 8.55743 7.52506 8.52729 7.53992 8.49044C7.55478 8.4536 7.55567 8.41261 7.54243 8.37515C7.52918 8.33769 7.50272 8.30636 7.468 8.28704L7.142 8.12403C7.11291 8.10906 7.07999 8.10319 7.04751 8.10719C7.01504 8.11118 6.98452 8.12486 6.95993 8.14643C6.93533 8.16801 6.9178 8.19649 6.90961 8.22816C6.90142 8.25984 6.90295 8.29324 6.914 8.32403L7.176 9.11103C7.18578 9.13973 7.18731 9.17059 7.18041 9.20011C7.17352 9.22964 7.15848 9.25664 7.137 9.27804L7.108 9.30703C7.08724 9.32764 7.06055 9.34123 7.03168 9.3459C7.0028 9.35056 6.97319 9.34606 6.94701 9.33303C6.84178 9.28125 6.72141 9.26919 6.608 9.29904C6.60092 8.82414 6.53372 8.35205 6.408 7.89404C6.39347 7.85455 6.36421 7.82222 6.32638 7.8038C6.28854 7.78538 6.24504 7.7823 6.20499 7.79522C6.16494 7.80814 6.13144 7.83605 6.1115 7.8731C6.09156 7.91016 6.08672 7.9535 6.098 7.99404C6.2211 8.45874 6.28395 8.93732 6.285 9.41804L6.085 9.49604V8.59603C6.085 8.48783 6.04201 8.38405 5.9655 8.30754C5.88898 8.23102 5.78521 8.18805 5.677 8.18805C5.56879 8.18805 5.46502 8.23102 5.3885 8.30754C5.31199 8.38405 5.269 8.48783 5.269 8.59603V9.38604L5.103 8.56404C5.09874 8.54303 5.09037 8.52305 5.07838 8.50528C5.0664 8.4875 5.05103 8.47225 5.03316 8.46041C5.01528 8.44858 4.99525 8.44037 4.9742 8.43628C4.95316 8.43218 4.93151 8.43227 4.9105 8.43653C4.88949 8.4408 4.86952 8.44916 4.85174 8.46115C4.83397 8.47313 4.81872 8.48851 4.80688 8.50639C4.79504 8.52426 4.78684 8.54429 4.78274 8.56533C4.77865 8.58638 4.77874 8.60803 4.783 8.62904L4.966 9.48104Z" fill="#F5F5F5"/>
<path d="M5.28 8.11009C5.32323 8.11009 5.36469 8.09293 5.39526 8.06236C5.42582 8.03179 5.443 7.99033 5.443 7.9471V7.7841C5.443 7.7627 5.43879 7.7415 5.4306 7.72173C5.4224 7.70195 5.41039 7.68397 5.39526 7.66884C5.38012 7.6537 5.36215 7.64171 5.34238 7.63351C5.3226 7.62532 5.3014 7.62109 5.28 7.62109C5.25859 7.62109 5.2374 7.62532 5.21762 7.63351C5.19784 7.64171 5.17988 7.6537 5.16474 7.66884C5.14961 7.68397 5.1376 7.70195 5.12941 7.72173C5.12122 7.7415 5.117 7.7627 5.117 7.7841V7.9471C5.117 7.99033 5.13417 8.03179 5.16474 8.06236C5.19531 8.09293 5.23677 8.11009 5.28 8.11009Z" fill="#F5F5F5"/>
<path d="M6.911 7.9471H7.07401C7.11724 7.9471 7.15869 7.92992 7.18925 7.89935C7.21982 7.86878 7.237 7.82733 7.237 7.7841C7.237 7.74087 7.21982 7.69941 7.18925 7.66884C7.15869 7.63827 7.11724 7.62109 7.07401 7.62109H6.911C6.86777 7.62109 6.82631 7.63827 6.79575 7.66884C6.76518 7.69941 6.748 7.74087 6.748 7.7841C6.748 7.82733 6.76518 7.86878 6.79575 7.89935C6.82631 7.92992 6.86777 7.9471 6.911 7.9471Z" fill="#F5F5F5"/>
<path d="M5.849 10.0911L5.033 10.5801C5.01462 10.5912 4.99858 10.6057 4.98582 10.6229C4.97305 10.6402 4.96381 10.6597 4.95861 10.6805C4.95341 10.7013 4.95236 10.723 4.95551 10.7442C4.95867 10.7654 4.96597 10.7857 4.97701 10.8041C4.98804 10.8225 5.00258 10.8385 5.01981 10.8513C5.03703 10.8641 5.0566 10.8733 5.0774 10.8785C5.0982 10.8837 5.11982 10.8848 5.14103 10.8816C5.16224 10.8785 5.18262 10.8712 5.201 10.8601L6.017 10.3711C6.05413 10.3489 6.08089 10.3127 6.09139 10.2707C6.10189 10.2287 6.09528 10.1843 6.073 10.1471C6.05072 10.11 6.01461 10.0832 5.9726 10.0727C5.93059 10.0622 5.88613 10.0689 5.849 10.0911Z" fill="#F5F5F5"/>
<path d="M8.048 10.3791C8.06083 10.4352 8.0865 10.4876 8.123 10.5321C8.15709 10.5713 8.20021 10.6016 8.24865 10.6204C8.29708 10.6392 8.34937 10.646 8.401 10.6401C8.46712 10.6371 8.53178 10.6197 8.59038 10.5889C8.64897 10.5581 8.70006 10.5148 8.74 10.4621C8.75089 10.4695 8.76224 10.4761 8.774 10.4821C8.819 10.5039 8.86862 10.5145 8.91861 10.5129C8.9686 10.5113 9.01746 10.4977 9.061 10.4731C9.15766 10.4134 9.23602 10.3283 9.28753 10.227C9.33903 10.1258 9.36168 10.0123 9.353 9.89905C9.34994 9.85635 9.33058 9.81646 9.29895 9.78762C9.26731 9.75877 9.2258 9.74318 9.183 9.74405C9.14002 9.74613 9.09959 9.76501 9.07041 9.79662C9.04123 9.82823 9.02564 9.87006 9.027 9.91306C9.027 9.91306 9.027 10.1131 8.912 10.1801C8.88673 10.1379 8.86944 10.0915 8.861 10.0431C8.85458 10.0024 8.83303 9.96567 8.80065 9.94025C8.76827 9.91483 8.72747 9.90261 8.68645 9.90603C8.64543 9.90944 8.60723 9.92826 8.5795 9.95868C8.55178 9.98911 8.5366 10.0289 8.537 10.0701C8.537 10.0941 8.532 10.3031 8.37 10.3211C8.35075 10.2514 8.35075 10.1777 8.37 10.1081C8.37769 10.0761 8.37553 10.0425 8.3638 10.0118C8.35207 9.98108 8.33132 9.95462 8.30427 9.9359C8.27723 9.91719 8.24516 9.90709 8.21227 9.90694C8.17938 9.90679 8.14722 9.9166 8.12 9.93506L8.029 9.99706C7.986 9.05106 7.886 7.94906 7.885 7.93506C7.88303 7.91372 7.87687 7.89297 7.86689 7.87401C7.8569 7.85505 7.84328 7.83824 7.8268 7.82454C7.81031 7.81085 7.7913 7.80053 7.77083 7.79418C7.75036 7.78783 7.72884 7.78559 7.7075 7.78756C7.68616 7.78953 7.66542 7.79568 7.64646 7.80567C7.6275 7.81566 7.61069 7.82927 7.59699 7.84575C7.58329 7.86224 7.57298 7.88125 7.56663 7.90172C7.56029 7.92219 7.55803 7.94372 7.56 7.96506C7.56 7.98006 7.677 9.25505 7.712 10.2291L7.687 10.2531C7.66071 10.1769 7.61307 10.1099 7.54977 10.0601C7.48647 10.0103 7.41019 9.97972 7.33 9.97205C7.20868 9.96728 7.08878 9.99942 6.98611 10.0642C6.88345 10.129 6.80287 10.2235 6.755 10.3351C6.7145 10.4177 6.70483 10.512 6.72775 10.6011C6.75067 10.6902 6.80466 10.7682 6.88 10.8211C6.95375 10.8622 7.03605 10.8856 7.12041 10.8894C7.20476 10.8932 7.28884 10.8774 7.366 10.8431C7.31359 11.0264 7.22332 11.1967 7.101 11.3431C7.03923 11.4232 6.96047 11.4886 6.87037 11.5346C6.78028 11.5806 6.68111 11.606 6.58 11.6091C6.5207 11.6097 6.46192 11.598 6.40735 11.5748C6.35279 11.5515 6.30364 11.5172 6.263 11.4741C6.14184 11.3042 6.08127 11.0985 6.091 10.8901C6.09318 10.847 6.0782 10.8048 6.04933 10.7727C6.02046 10.7407 5.98007 10.7214 5.937 10.7191C5.9155 10.7174 5.89389 10.7202 5.87347 10.7271C5.85305 10.734 5.83424 10.745 5.81817 10.7594C5.80211 10.7738 5.78912 10.7913 5.77998 10.8108C5.77084 10.8303 5.76574 10.8515 5.765 10.8731C5.75087 11.168 5.84156 11.4585 6.021 11.6931C6.09051 11.7687 6.17486 11.8293 6.2688 11.8709C6.36274 11.9126 6.46425 11.9344 6.567 11.9351H6.6C6.74501 11.9302 6.88721 11.8937 7.01661 11.8281C7.146 11.7624 7.25945 11.6692 7.349 11.5551C7.54801 11.3161 7.67709 11.0268 7.722 10.7191C7.71479 11.0074 7.64024 11.2901 7.50428 11.5444C7.36832 11.7988 7.17474 12.0179 6.939 12.1841C6.82028 12.2654 6.68211 12.3138 6.5386 12.3243C6.39508 12.3349 6.25133 12.3072 6.122 12.2441C6.00063 12.1774 5.90174 12.0763 5.83784 11.9535C5.77394 11.8307 5.7479 11.6917 5.763 11.5541C5.7683 11.5111 5.75633 11.4678 5.7297 11.4336C5.70307 11.3995 5.66397 11.3774 5.621 11.3721C5.57804 11.3668 5.53472 11.3787 5.50059 11.4054C5.46646 11.432 5.44431 11.4711 5.439 11.5141C5.41523 11.7189 5.45387 11.9262 5.54986 12.1087C5.64586 12.2913 5.79474 12.4405 5.977 12.5371C6.13032 12.6141 6.29942 12.6545 6.471 12.655C6.69825 12.6523 6.92009 12.5854 7.111 12.4621C7.39424 12.2667 7.62694 12.0067 7.78986 11.7036C7.95279 11.4006 8.04127 11.0631 8.048 10.7191C8.053 10.6121 8.051 10.5001 8.048 10.3791ZM7.064 10.5471C7.035 10.5281 7.058 10.4661 7.064 10.4541C7.08449 10.4096 7.11638 10.3714 7.15642 10.3433C7.19647 10.3152 7.24325 10.2982 7.292 10.2941H7.305C7.326 10.2941 7.381 10.3011 7.405 10.4241C7.405 10.4371 7.405 10.4501 7.411 10.4641C7.228 10.5721 7.106 10.5741 7.064 10.5471Z" fill="#F5F5F5"/>
<path d="M5.362 12.048C5.32473 12.0262 5.28031 12.02 5.2385 12.0309C5.19668 12.0418 5.1609 12.0688 5.139 12.106C5.13061 12.1197 5.12125 12.1327 5.111 12.145L5.106 12.132C5.05891 11.9507 5.05891 11.7604 5.106 11.579C5.11714 11.5373 5.11122 11.4928 5.08956 11.4554C5.07884 11.4368 5.06457 11.4206 5.04757 11.4076C5.03057 11.3946 5.01118 11.385 4.9905 11.3795C4.94872 11.3684 4.90425 11.3743 4.86683 11.396C4.82942 11.4176 4.80214 11.4533 4.791 11.495C4.72242 11.741 4.72242 12.0011 4.791 12.247C4.866 12.447 4.981 12.497 5.064 12.504H5.086C5.15502 12.4945 5.22068 12.4683 5.27731 12.4277C5.33393 12.3871 5.37982 12.3333 5.411 12.271C5.43366 12.2349 5.44123 12.1912 5.43206 12.1495C5.4229 12.1078 5.39775 12.0714 5.362 12.048Z" fill="#F5F5F5"/>
<path d="M8.37301 9.08909C8.40932 9.08896 8.44453 9.07663 8.473 9.05408L9.29501 8.40809C9.30539 8.39867 9.31447 8.38791 9.322 8.37609C9.39642 8.33171 9.45477 8.26479 9.48861 8.18502C9.52245 8.10525 9.53002 8.01679 9.51022 7.93244C9.49041 7.84809 9.44427 7.77222 9.37847 7.71584C9.31267 7.65947 9.23064 7.6255 9.14425 7.61887C9.05786 7.61224 8.97159 7.63329 8.89796 7.67896C8.82432 7.72463 8.76715 7.79256 8.7347 7.8729C8.70226 7.95324 8.69624 8.04183 8.71751 8.12583C8.73878 8.20983 8.78623 8.28487 8.853 8.34009L8.271 8.7971C8.24446 8.81802 8.22508 8.84667 8.21554 8.8791C8.206 8.91152 8.20678 8.9461 8.21777 8.97806C8.22875 9.01003 8.2494 9.03779 8.27685 9.0575C8.3043 9.07721 8.3372 9.08791 8.371 9.0881L8.37301 9.08909ZM9.11401 7.94709C9.13022 7.94709 9.14607 7.9519 9.15955 7.96091C9.17304 7.96992 9.18356 7.98273 9.18977 7.99772C9.19597 8.0127 9.19758 8.02917 9.19442 8.04508C9.19126 8.06099 9.18346 8.07561 9.17199 8.08707C9.16052 8.09854 9.1459 8.10636 9.13 8.10952C9.11409 8.11268 9.0976 8.11106 9.08262 8.10485C9.06764 8.09864 9.05483 8.08814 9.04582 8.07465C9.0368 8.06117 9.03201 8.04531 9.03201 8.02909C9.03201 8.00734 9.04065 7.98648 9.05602 7.97111C9.0714 7.95573 9.09226 7.94709 9.11401 7.94709Z" fill="#F5F5F5"/>
<path d="M8.92 8.93514C8.87941 8.92138 8.83503 8.92416 8.79648 8.94288C8.75793 8.9616 8.7283 8.99473 8.71401 9.03513C8.68296 9.11415 8.67254 9.19978 8.68373 9.28393C8.69493 9.36808 8.72738 9.44799 8.778 9.51614C8.81017 9.54747 8.84842 9.57189 8.89038 9.58788C8.93235 9.60388 8.97714 9.61111 9.02201 9.60914C9.09877 9.60729 9.17473 9.59312 9.247 9.56715C9.26901 9.56208 9.28974 9.55247 9.30785 9.53896C9.32596 9.52546 9.34108 9.50834 9.35222 9.48869C9.36336 9.46903 9.37029 9.44728 9.37258 9.4248C9.37486 9.40232 9.37245 9.37961 9.3655 9.35812C9.35854 9.33662 9.34719 9.3168 9.33217 9.29992C9.31715 9.28304 9.29878 9.26948 9.27823 9.26008C9.25769 9.25068 9.23541 9.24566 9.21282 9.24532C9.19023 9.24499 9.16782 9.24935 9.14701 9.25814C9.10395 9.27277 9.05929 9.28217 9.01399 9.28614C9.00618 9.23615 9.01064 9.18502 9.02699 9.13714C9.03922 9.09616 9.03486 9.05203 9.01485 9.01424C8.99483 8.97646 8.96077 8.94805 8.92 8.93514Z" fill="#F5F5F5"/>
<path d="M10.787 8.26001C10.8282 8.27147 10.8723 8.26625 10.9097 8.24548C10.9472 8.22471 10.9749 8.19005 10.987 8.149L11.087 7.82301C11.0934 7.80235 11.0955 7.78062 11.0934 7.75911C11.0913 7.73759 11.0849 7.7167 11.0747 7.69768C11.0644 7.67865 11.0505 7.66186 11.0336 7.64827C11.0168 7.63468 10.9975 7.62458 10.9767 7.61854C10.956 7.61251 10.9342 7.61066 10.9127 7.61311C10.8912 7.61556 10.8705 7.62227 10.8516 7.63283C10.8327 7.64339 10.8162 7.65759 10.8028 7.67462C10.7895 7.69165 10.7797 7.71116 10.774 7.73201L10.674 8.05801C10.6681 8.0787 10.6663 8.10034 10.6688 8.12172C10.6712 8.14309 10.6779 8.16376 10.6884 8.18254C10.6989 8.20132 10.713 8.21784 10.73 8.23114C10.7469 8.24443 10.7663 8.25424 10.787 8.26001Z" fill="#F5F5F5"/>
<path d="M9.83601 8.24207C9.8734 8.26395 9.91795 8.27009 9.95986 8.25912C10.0018 8.24815 10.0376 8.22098 10.0595 8.18359C10.0814 8.14619 10.0875 8.10163 10.0765 8.05972C10.0656 8.0178 10.0384 7.98196 10.001 7.96008C9.968 7.94108 9.97301 7.88708 9.97401 7.87608C9.9754 7.8528 9.98311 7.83034 9.99633 7.81113C10.0095 7.79192 10.0278 7.7767 10.049 7.76708C10.0695 7.76052 10.0885 7.74998 10.1049 7.73608C10.1213 7.72217 10.1348 7.70516 10.1447 7.68603C10.1545 7.6669 10.1605 7.64602 10.1623 7.62458C10.164 7.60314 10.1616 7.58156 10.155 7.56107C10.1484 7.54059 10.1379 7.52159 10.124 7.50518C10.1101 7.48877 10.0931 7.47526 10.074 7.46542C10.0548 7.45557 10.0339 7.4496 10.0125 7.44782C9.99107 7.44605 9.96949 7.44852 9.949 7.45509C9.86741 7.48325 9.79571 7.53436 9.74249 7.6023C9.68927 7.67025 9.65681 7.75213 9.64901 7.83808C9.63665 7.91637 9.64781 7.99658 9.6811 8.0685C9.71439 8.14043 9.76832 8.20084 9.83601 8.24207Z" fill="#F5F5F5"/>
<path d="M8.54201 10.884C8.50149 10.8841 8.46244 10.8992 8.43246 10.9264C8.40249 10.9537 8.38374 10.9911 8.37987 11.0315C8.376 11.0718 8.38729 11.1121 8.41153 11.1446C8.43577 11.177 8.47123 11.1993 8.511 11.207C8.53665 11.2584 8.54739 11.3159 8.54201 11.373C8.54201 11.4163 8.55917 11.4577 8.58973 11.4883C8.6203 11.5189 8.66177 11.536 8.705 11.536C8.74823 11.536 8.78968 11.5189 8.82025 11.4883C8.85082 11.4577 8.86799 11.4163 8.86799 11.373C8.86799 10.89 8.55501 10.884 8.54201 10.884Z" fill="#F5F5F5"/>
<path d="M11.31 10.2121C11.3303 10.2137 11.3507 10.2137 11.371 10.2121C11.4449 10.2072 11.5172 10.1876 11.5835 10.1545C11.6497 10.1213 11.7087 10.0753 11.757 10.0191C11.7722 10.0039 11.7842 9.9859 11.7924 9.96608C11.8006 9.94626 11.8048 9.92503 11.8048 9.90358C11.8048 9.88213 11.8006 9.86088 11.7924 9.84106C11.7842 9.82125 11.7722 9.80325 11.757 9.78809C11.7418 9.77292 11.7238 9.76088 11.704 9.75267C11.6842 9.74446 11.6629 9.74023 11.6415 9.74023C11.62 9.74023 11.5988 9.74446 11.579 9.75267C11.5592 9.76088 11.5412 9.77292 11.526 9.78809C11.426 9.88809 11.376 9.88808 11.363 9.88808C11.332 9.88808 11.304 9.84308 11.297 9.83208C11.2774 9.79349 11.2432 9.76428 11.2021 9.75087C11.1609 9.73746 11.1161 9.74095 11.0775 9.76057C11.0389 9.7802 11.0097 9.81435 10.9963 9.85551C10.9829 9.89668 10.9864 9.94148 11.006 9.98007C11.036 10.0391 11.0789 10.0906 11.1315 10.1307C11.1842 10.1709 11.2452 10.1987 11.31 10.2121Z" fill="#F5F5F5"/>
<path d="M14.083 9.06209V9.05509C14.0671 9.01751 14.0378 8.98725 14.0007 8.97028C13.9636 8.95331 13.9215 8.95085 13.8827 8.96341C13.8439 8.97597 13.8112 9.00263 13.7911 9.03812C13.7709 9.0736 13.7648 9.11533 13.774 9.15508C13.7918 9.21705 13.8257 9.2732 13.8723 9.31781C13.9188 9.36243 13.9763 9.39393 14.039 9.40909H14.075C14.1416 9.40201 14.2053 9.37833 14.2603 9.34024C14.3153 9.30216 14.3599 9.25088 14.39 9.19109C14.4127 9.15515 14.4204 9.11178 14.4115 9.07022C14.4027 9.02867 14.378 8.99221 14.3427 8.96861C14.3073 8.94502 14.2642 8.93615 14.2224 8.9439C14.1806 8.95164 14.1435 8.97539 14.119 9.01009C14.1081 9.02816 14.0961 9.04553 14.083 9.06209Z" fill="#F5F5F5"/>
<path d="M13.762 12.0251C13.762 11.3251 13.731 10.6771 13.689 10.1051C13.9101 10.4769 14.1017 10.8654 14.262 11.2671C14.2736 11.2983 14.2945 11.3252 14.3219 11.3441C14.3492 11.3631 14.3817 11.3732 14.415 11.3731C14.4344 11.3732 14.4537 11.3698 14.472 11.3631C14.4925 11.3561 14.5113 11.345 14.5275 11.3306C14.5436 11.3162 14.5567 11.2987 14.566 11.2791C14.5754 11.2596 14.5807 11.2384 14.5817 11.2167C14.5827 11.1951 14.5794 11.1735 14.572 11.1531C14.3143 10.529 13.9985 9.93035 13.629 9.36515C13.54 8.48615 13.44 7.92915 13.438 7.91915C13.4303 7.87658 13.406 7.83881 13.3705 7.81415C13.3349 7.78949 13.2911 7.77996 13.2485 7.78765C13.2059 7.79534 13.1682 7.81961 13.1435 7.85515C13.1188 7.89069 13.1093 7.93458 13.117 7.97715C13.117 7.98415 13.17 8.27115 13.231 8.75515C13.106 8.56915 12.989 8.40114 12.892 8.26314H12.9C12.9208 8.27193 12.9432 8.27629 12.9658 8.27596C12.9884 8.27562 13.0107 8.2706 13.0312 8.2612C13.0518 8.2518 13.0701 8.23824 13.0852 8.22136C13.1002 8.20449 13.1115 8.18466 13.1185 8.16317C13.1254 8.14167 13.1279 8.11896 13.1256 8.09648C13.1233 8.07401 13.1164 8.05225 13.1052 8.0326C13.0941 8.01294 13.079 7.99582 13.0609 7.98232C13.0427 7.96881 13.022 7.95921 13 7.95413L12.511 7.79114C12.4781 7.77991 12.4424 7.77958 12.4092 7.79021C12.3761 7.80084 12.3473 7.82185 12.327 7.85015C12.3162 7.86533 12.3081 7.88224 12.303 7.90015C12.2582 7.85838 12.2033 7.82888 12.1438 7.81452C12.0842 7.80015 12.0219 7.8014 11.963 7.81815C11.9095 7.84356 11.8655 7.8854 11.8374 7.93756C11.8094 7.98973 11.7987 8.04949 11.807 8.10814C11.8194 8.26724 11.8576 8.42328 11.92 8.57015C12.02 8.84215 12.076 9.04214 11.974 9.13814C11.9537 9.1617 11.9277 9.17953 11.8984 9.18988C11.8691 9.20023 11.8376 9.20274 11.807 9.19715C11.707 9.17215 11.607 9.03814 11.541 8.83914C11.5373 8.83112 11.533 8.82343 11.528 8.81615C11.5605 8.51543 11.5436 8.21141 11.478 7.91614C11.4695 7.87371 11.4445 7.83639 11.4085 7.81238C11.3725 7.78838 11.3284 7.77966 11.286 7.78815C11.2436 7.79664 11.2062 7.82163 11.1822 7.85764C11.1582 7.89365 11.1495 7.9377 11.158 7.98014C11.2815 8.36382 11.2511 8.78051 11.073 9.14214C11.044 9.17854 11.0067 9.2075 10.9643 9.22663C10.9219 9.24576 10.8755 9.2545 10.829 9.25214C10.8141 9.25277 10.7992 9.24984 10.7856 9.24358C10.7721 9.23732 10.7602 9.22791 10.751 9.21614C10.6307 8.92542 10.6004 8.60527 10.664 8.29714C10.6673 8.27397 10.6656 8.25037 10.6589 8.22792C10.6523 8.20548 10.6409 8.18473 10.6256 8.16709C10.6102 8.14944 10.5912 8.13531 10.5699 8.12566C10.5486 8.11601 10.5254 8.11106 10.502 8.11115C10.221 8.11115 10.115 8.43014 10.021 8.71114C9.98 8.83514 9.90299 9.06514 9.84999 9.08914C9.74999 9.08914 9.687 8.79914 9.687 8.59914C9.687 8.55591 9.66982 8.51446 9.63926 8.48389C9.60869 8.45332 9.56724 8.43614 9.52401 8.43614C9.48078 8.43614 9.43931 8.45332 9.40874 8.48389C9.37817 8.51446 9.361 8.55591 9.361 8.59914C9.361 8.97514 9.48899 9.41515 9.84999 9.41515C10.119 9.41515 10.228 9.12215 10.319 8.85015C10.3203 9.05778 10.3848 9.2601 10.504 9.43015C10.5438 9.47747 10.5936 9.51538 10.6498 9.54114C10.706 9.56691 10.7672 9.57988 10.829 9.57913C10.9244 9.5818 11.0192 9.56244 11.1059 9.52256C11.1926 9.48267 11.2689 9.42332 11.329 9.34914C11.3515 9.32066 11.3719 9.29058 11.39 9.25914C11.4691 9.38341 11.5906 9.47474 11.732 9.51615C11.7696 9.52588 11.8082 9.53091 11.847 9.53115C11.9805 9.52813 12.1077 9.47367 12.202 9.37914C12.2219 9.35879 12.24 9.33671 12.256 9.31314C12.2953 9.32475 12.336 9.33081 12.377 9.33115C12.4967 9.32907 12.6135 9.2945 12.715 9.23114C12.7507 9.20761 12.7758 9.17096 12.7847 9.12912C12.7937 9.08728 12.7858 9.04359 12.7629 9.00749C12.7399 8.9714 12.7036 8.94578 12.6619 8.93618C12.6202 8.92657 12.5765 8.93374 12.54 8.95615C12.4842 8.9896 12.4201 9.00658 12.355 9.00515C12.3433 8.82089 12.3014 8.63981 12.231 8.46915C12.1973 8.38 12.1693 8.28881 12.147 8.19614L12.185 8.23114C12.2001 8.24635 12.2181 8.25842 12.238 8.26665C12.2578 8.27488 12.279 8.27913 12.3005 8.27913C12.322 8.27913 12.3432 8.27488 12.363 8.26665C12.3829 8.25842 12.4009 8.24635 12.416 8.23114C12.4256 8.22032 12.4337 8.2082 12.44 8.19515C12.609 8.42815 12.957 8.91715 13.315 9.48215C13.383 10.1762 13.443 11.0601 13.443 12.0311C13.443 12.0744 13.4602 12.1158 13.4907 12.1464C13.5213 12.177 13.5628 12.1941 13.606 12.1941C13.6492 12.1941 13.6907 12.177 13.7213 12.1464C13.7518 12.1158 13.769 12.0744 13.769 12.0311L13.762 12.0251Z" fill="#F5F5F5"/>
<path d="M13.925 8.43715C13.925 8.48038 13.9422 8.52184 13.9727 8.55241C14.0033 8.58298 14.0447 8.60016 14.088 8.60016C14.1312 8.60016 14.1727 8.58298 14.2032 8.55241C14.2338 8.52184 14.251 8.48038 14.251 8.43715C14.225 8.24058 14.164 8.05026 14.071 7.87515C14.0516 7.83643 14.0177 7.80698 13.9766 7.79329C13.9355 7.7796 13.8907 7.78279 13.852 7.80215C13.8133 7.82151 13.7838 7.85546 13.7701 7.89653C13.7564 7.9376 13.7596 7.98242 13.779 8.02115C13.8486 8.15155 13.8978 8.29184 13.925 8.43715Z" fill="#F5F5F5"/>
<path d="M13.183 12.0432C13.1639 12.0335 13.1431 12.0277 13.1217 12.0261C13.1004 12.0245 13.0789 12.0271 13.0586 12.0338C13.0382 12.0405 13.0194 12.0511 13.0032 12.0651C12.987 12.079 12.9737 12.0961 12.964 12.1152C12.9458 12.1513 12.9229 12.1849 12.896 12.2152C12.8935 12.1135 12.9081 12.0121 12.939 11.9152C12.9496 11.8804 12.9483 11.8431 12.9353 11.8092C12.9223 11.7753 12.8983 11.7466 12.8671 11.7279C12.836 11.7092 12.7995 11.7014 12.7634 11.7058C12.7273 11.7102 12.6937 11.7265 12.668 11.7522L12.342 12.0782C12.3114 12.1088 12.2942 12.1504 12.2942 12.1937C12.2942 12.237 12.3114 12.2785 12.342 12.3092C12.3726 12.3398 12.4142 12.357 12.4575 12.357C12.5008 12.357 12.5424 12.3398 12.573 12.3092L12.581 12.3012C12.5928 12.3654 12.6231 12.4248 12.668 12.4722C12.6953 12.5011 12.7281 12.5243 12.7645 12.5405C12.8009 12.5566 12.8402 12.5654 12.88 12.5662C12.895 12.5674 12.91 12.5674 12.925 12.5662C12.9987 12.5432 13.0664 12.5045 13.1236 12.4527C13.1807 12.4009 13.2259 12.3372 13.256 12.2662C13.2662 12.2468 13.2725 12.2256 13.2744 12.2038C13.2762 12.182 13.2737 12.16 13.2669 12.1392C13.26 12.1184 13.2491 12.0991 13.2347 12.0826C13.2203 12.0661 13.2027 12.0527 13.183 12.0432Z" fill="#F5F5F5"/>
<path d="M13.119 10.7292H11.969C11.979 10.6885 11.9893 10.6498 12 10.6132C12.458 10.5132 12.731 10.3702 12.811 10.1722C12.8345 10.1113 12.8412 10.0452 12.8305 9.98082C12.8197 9.91645 12.792 9.85614 12.75 9.80615C12.7067 9.73905 12.6444 9.68643 12.5709 9.65506C12.4975 9.6237 12.4164 9.61503 12.338 9.63016C12.106 9.67716 11.9 9.93016 11.751 10.3302C11.4053 10.3755 11.079 10.5165 10.809 10.7372C10.78 10.3549 10.6644 9.98418 10.471 9.65315C10.4465 9.61846 10.4094 9.59471 10.3676 9.58696C10.3258 9.57922 10.2827 9.58808 10.2474 9.61168C10.212 9.63528 10.1873 9.67175 10.1785 9.7133C10.1696 9.75486 10.1773 9.79821 10.2 9.83415C10.4076 10.2044 10.5112 10.6239 10.5 11.0482C10.5108 11.3443 10.4194 11.6351 10.2411 11.8718C10.0629 12.1086 9.8086 12.2767 9.52101 12.3482C9.33801 12.3482 9.258 12.1302 9.221 11.9482C9.56728 11.7508 9.84157 11.4481 10.004 11.0842C10.0729 10.7858 10.0343 10.4728 9.895 10.2002L9.88301 10.1722L9.893 10.1822C9.90817 10.1973 9.92618 10.2094 9.94599 10.2176C9.96581 10.2258 9.98704 10.23 10.0085 10.23C10.0299 10.23 10.0512 10.2258 10.071 10.2176C10.0908 10.2094 10.1088 10.1973 10.124 10.1822C10.1392 10.167 10.1512 10.149 10.1594 10.1292C10.1676 10.1093 10.1718 10.0881 10.1718 10.0667C10.1718 10.0452 10.1676 10.024 10.1594 10.0042C10.1512 9.98433 10.1392 9.96633 10.124 9.95116C10.024 9.85116 9.843 9.70616 9.675 9.77616C9.62149 9.80157 9.57751 9.8434 9.54945 9.89557C9.52139 9.94774 9.51071 10.0075 9.51899 10.0662C9.52672 10.1577 9.55255 10.2467 9.595 10.3282C9.70537 10.5356 9.738 10.7757 9.68701 11.0052C9.57064 11.2496 9.38492 11.4545 9.153 11.5942C9.13821 11.5757 9.1195 11.5607 9.09823 11.5503C9.07696 11.54 9.05366 11.5344 9.02999 11.5342C9.00859 11.5342 8.98739 11.5384 8.96762 11.5466C8.94784 11.5548 8.92988 11.5668 8.91474 11.5819C8.89961 11.597 8.8876 11.615 8.87941 11.6348C8.87121 11.6546 8.867 11.6758 8.867 11.6972C8.867 11.7262 8.867 11.7582 8.867 11.7902C8.53112 12.0057 8.1806 12.1975 7.818 12.3642C7.78369 12.3794 7.75568 12.406 7.7387 12.4394C7.72172 12.4729 7.71681 12.5112 7.7248 12.5479C7.7328 12.5846 7.7532 12.6173 7.78257 12.6407C7.81194 12.6641 7.84847 12.6766 7.886 12.6762C7.90915 12.6761 7.93201 12.671 7.953 12.6612C8.28764 12.5065 8.61287 12.3321 8.927 12.1392C8.94932 12.2823 9.01989 12.4135 9.12702 12.511C9.23416 12.6085 9.37141 12.6664 9.516 12.6752C9.75105 12.6461 9.97474 12.5574 10.1657 12.4173C10.3567 12.2773 10.5087 12.0906 10.607 11.8752C10.638 11.9307 10.6745 11.9829 10.716 12.0312C11.0566 12.3413 11.5013 12.5123 11.962 12.5102C12.0052 12.5118 12.0473 12.4961 12.079 12.4667C12.1107 12.4372 12.1294 12.3964 12.131 12.3532C12.1326 12.3099 12.1169 12.2678 12.0875 12.2361C12.0581 12.2045 12.0172 12.1858 11.974 12.1842C11.8982 12.1737 11.8279 12.1385 11.774 12.0842C11.7511 12.054 11.7346 12.0194 11.7255 11.9826C11.7163 11.9458 11.7148 11.9076 11.721 11.8702C11.738 11.6702 12.386 11.5192 12.958 11.5102C12.9912 11.5097 13.0234 11.4991 13.0504 11.4798C13.0774 11.4605 13.0978 11.4334 13.109 11.4022L13.272 10.9432C13.2808 10.9186 13.2836 10.8923 13.2801 10.8664C13.2766 10.8405 13.267 10.8159 13.252 10.7945C13.237 10.7731 13.2171 10.7557 13.1939 10.7436C13.1708 10.7316 13.1451 10.7252 13.119 10.7252V10.7292ZM12.403 9.95015H12.415C12.431 9.95015 12.455 9.95815 12.488 10.0022C12.494 10.0102 12.514 10.0392 12.509 10.0512C12.49 10.0972 12.378 10.1732 12.143 10.2432C12.247 10.0412 12.348 9.96317 12.403 9.95217V9.95015ZM11.418 12.0942C11.2458 12.0449 11.0901 11.9502 10.967 11.8202C10.9019 11.7411 10.8552 11.6487 10.8301 11.5494C10.805 11.4502 10.8023 11.3466 10.822 11.2462C10.8315 11.2223 10.8428 11.1992 10.856 11.1772C11.086 11.1562 11.699 11.2472 11.742 11.4222C11.6522 11.4566 11.573 11.5141 11.5124 11.5889C11.4518 11.6637 11.412 11.7531 11.397 11.8482C11.3889 11.9314 11.396 12.0155 11.418 12.0962V12.0942Z" fill="#F5F5F5"/>
<path d="M14.892 8.38502L14.729 7.89602C14.7165 7.85774 14.6902 7.82544 14.6553 7.80537C14.6204 7.7853 14.5793 7.77887 14.5399 7.78732C14.5005 7.79577 14.4656 7.81849 14.442 7.85112C14.4184 7.88374 14.4077 7.92397 14.412 7.96402C14.525 9.09002 14.738 11.285 14.738 11.536C14.738 11.762 14.338 12.207 13.686 12.536C13.6473 12.5554 13.6178 12.5893 13.6041 12.6304C13.5904 12.6715 13.5936 12.7163 13.613 12.755C13.6324 12.7937 13.6663 12.8232 13.7074 12.8369C13.7485 12.8506 13.7933 12.8474 13.832 12.828C14.425 12.528 15.064 12.002 15.064 11.54C15.064 11.299 14.897 9.56501 14.802 8.59101C14.8406 8.5748 14.8714 8.54436 14.8882 8.50601C14.9049 8.46766 14.9063 8.42435 14.892 8.38502Z" fill="#F5F5F5"/>
<path d="M16.257 9.8571C16.2823 9.88234 16.3152 9.89856 16.3506 9.90329C16.386 9.90801 16.422 9.90098 16.453 9.88325C16.484 9.86553 16.5084 9.83809 16.5223 9.80517C16.5362 9.77226 16.5389 9.7357 16.53 9.70109C16.5018 9.59793 16.494 9.49025 16.507 9.38409C16.5475 9.38557 16.5872 9.37214 16.6186 9.34634C16.6499 9.32055 16.6707 9.28417 16.677 9.24409C16.6801 9.22288 16.679 9.20127 16.6737 9.18048C16.6685 9.15969 16.6592 9.14015 16.6464 9.12297C16.6336 9.10578 16.6175 9.0913 16.5991 9.08034C16.5806 9.06938 16.5602 9.06216 16.539 9.0591C16.4901 9.05087 16.44 9.05487 16.393 9.07075C16.3461 9.08663 16.3038 9.11389 16.27 9.1501C16.2278 9.20022 16.1995 9.26058 16.188 9.3251L15.999 9.13609C15.9684 9.10546 15.9268 9.08826 15.8835 9.08826C15.8402 9.08826 15.7986 9.10546 15.768 9.13609C15.7374 9.16672 15.7202 9.20828 15.7202 9.2516C15.7202 9.29492 15.7374 9.33646 15.768 9.36709L16.257 9.8571Z" fill="#F5F5F5"/>
<path d="M16.624 10.0281L16.012 10.4661C15.9946 10.4786 15.9798 10.4943 15.9685 10.5125C15.9572 10.5307 15.9496 10.5509 15.9461 10.5721C15.9427 10.5932 15.9434 10.6148 15.9482 10.6357C15.9531 10.6565 15.962 10.6762 15.9745 10.6936C15.987 10.711 16.0028 10.7258 16.0209 10.7371C16.0391 10.7484 16.0594 10.756 16.0805 10.7595C16.1016 10.7629 16.1232 10.7622 16.1441 10.7574C16.1649 10.7525 16.1846 10.7436 16.202 10.7311L16.814 10.2931C16.8314 10.2806 16.8462 10.2648 16.8575 10.2466C16.8688 10.2285 16.8764 10.2082 16.8799 10.1871C16.8834 10.166 16.8826 10.1444 16.8778 10.1235C16.8729 10.1027 16.864 10.083 16.8515 10.0656C16.839 10.0482 16.8232 10.0334 16.8051 10.0221C16.7869 10.0108 16.7666 10.0032 16.7455 9.99973C16.7244 9.99625 16.7028 9.99696 16.6819 10.0018C16.6611 10.0067 16.6414 10.0156 16.624 10.0281Z" fill="#F5F5F5"/>
<path d="M16.57 10.6411C16.5455 10.6725 16.5334 10.7119 16.536 10.7517C16.5386 10.7915 16.5556 10.829 16.584 10.8571C16.6157 10.9311 16.6271 11.0122 16.617 11.0921C16.6162 11.1135 16.6196 11.1348 16.6271 11.1549C16.6345 11.175 16.6459 11.1934 16.6605 11.2091C16.675 11.2248 16.6926 11.2375 16.7121 11.2464C16.7316 11.2553 16.7526 11.2603 16.774 11.2611H16.78C16.8222 11.2611 16.8628 11.2447 16.8932 11.2155C16.9236 11.1862 16.9414 11.1462 16.943 11.1041C16.955 10.7711 16.843 10.6491 16.799 10.6131C16.7821 10.5999 16.7628 10.5901 16.7422 10.5843C16.7216 10.5786 16.7 10.577 16.6787 10.5796C16.6574 10.5822 16.6369 10.589 16.6182 10.5995C16.5996 10.6101 16.5832 10.6242 16.57 10.6411Z" fill="#F5F5F5"/>
<path d="M17.993 11.8421C18.0144 11.8421 18.0356 11.8378 18.0554 11.8297C18.0752 11.8215 18.0931 11.8095 18.1083 11.7943C18.1234 11.7792 18.1354 11.7612 18.1436 11.7414C18.1518 11.7217 18.156 11.7005 18.156 11.6791C18.156 11.4381 18.144 11.1701 18.123 10.8901C18.2662 11.1178 18.3939 11.355 18.505 11.6001C18.5134 11.6198 18.5256 11.6376 18.5409 11.6526C18.5562 11.6676 18.5743 11.6794 18.5942 11.6874C18.6141 11.6954 18.6353 11.6994 18.6567 11.6991C18.6782 11.6989 18.6993 11.6945 18.719 11.6861C18.7387 11.6777 18.7566 11.6655 18.7715 11.6502C18.7865 11.6348 18.7984 11.6167 18.8063 11.5969C18.8143 11.577 18.8183 11.5558 18.8181 11.5343C18.8179 11.5129 18.8134 11.4918 18.805 11.4721C18.5924 11.0232 18.3428 10.5927 18.059 10.1851C17.995 9.58506 17.911 9.00006 17.847 8.57906C17.8822 8.58222 17.9175 8.5734 17.947 8.55405C17.9711 8.53823 17.9904 8.51625 18.0031 8.49039C18.0157 8.46454 18.0213 8.43577 18.019 8.40706C18.0225 8.42359 18.0285 8.43946 18.037 8.45406C18.1029 8.57637 18.1238 8.71793 18.096 8.85406C18.0916 8.87507 18.0914 8.89675 18.0955 8.91784C18.0995 8.93893 18.1076 8.95902 18.1194 8.97695C18.1312 8.99488 18.1464 9.0103 18.1642 9.02233C18.182 9.03436 18.202 9.04278 18.223 9.04706C18.234 9.04811 18.245 9.04811 18.256 9.04706C18.2936 9.04715 18.33 9.03425 18.3592 9.01057C18.3883 8.98688 18.4084 8.95385 18.416 8.91706C18.4612 8.69833 18.4256 8.47064 18.316 8.27605C18.2926 8.2398 18.2559 8.21423 18.2138 8.20487C18.1717 8.19551 18.1275 8.20313 18.091 8.22607C18.0668 8.24177 18.0472 8.26369 18.0344 8.28956C18.0215 8.31542 18.0159 8.34426 18.018 8.37305C18.0145 8.35653 18.0085 8.34067 18 8.32606L17.725 7.89806C17.7054 7.86478 17.6746 7.83955 17.6381 7.82686C17.6016 7.81418 17.5618 7.81486 17.5258 7.82879C17.4898 7.84272 17.4599 7.869 17.4414 7.90293C17.4229 7.93686 17.4171 7.97624 17.425 8.01406C17.425 8.02706 17.552 8.74306 17.662 9.60506C17.537 9.42806 17.412 9.25606 17.291 9.09106C17.271 8.84406 17.251 8.61605 17.234 8.42705L17.261 8.41706C17.2802 8.4075 17.2973 8.39423 17.3114 8.37804C17.3255 8.36185 17.3362 8.34306 17.343 8.32271C17.3497 8.30237 17.3525 8.28089 17.3509 8.2595C17.3494 8.23811 17.3436 8.21723 17.334 8.19807L17.171 7.87206C17.154 7.83798 17.1255 7.81094 17.0906 7.79565C17.0557 7.78035 17.0166 7.77777 16.98 7.78835C16.9433 7.79893 16.9116 7.822 16.8903 7.85355C16.8689 7.8851 16.8592 7.92315 16.863 7.96107C16.882 8.15607 16.903 8.37106 16.923 8.59806C16.823 8.46206 16.723 8.33806 16.643 8.23206C16.6635 8.21459 16.6794 8.19231 16.6892 8.1672C16.699 8.14209 16.7024 8.11494 16.6991 8.08819C16.6959 8.06143 16.686 8.0359 16.6704 8.01389C16.6549 7.99188 16.6341 7.97407 16.61 7.96206L16.284 7.79906C16.2508 7.78236 16.2127 7.77755 16.1764 7.78544C16.14 7.79333 16.1074 7.81343 16.084 7.84241C16.0606 7.87139 16.0479 7.90751 16.0479 7.94474C16.0479 7.98197 16.0606 8.01808 16.084 8.04706C16.093 8.05806 16.494 8.56107 16.975 9.21107C17.0704 10.0188 17.0905 10.8336 17.035 11.6451C17.021 11.6881 16.996 11.7391 16.972 11.7451C16.872 11.7591 16.638 11.5381 16.52 11.3021C16.5035 11.2576 16.4735 11.2194 16.4343 11.1929C16.395 11.1663 16.3484 11.1528 16.301 11.1541C16.126 11.1651 16.057 11.3541 15.933 11.7081C15.8641 11.9545 15.7546 12.1877 15.609 12.3981C15.5037 12.1981 15.436 11.9805 15.409 11.7561C15.4217 11.7924 15.4468 11.823 15.4799 11.8425C15.513 11.862 15.552 11.869 15.5899 11.8624C15.6277 11.8558 15.662 11.8359 15.6866 11.8064C15.7112 11.7768 15.7244 11.7395 15.724 11.7011C15.724 11.4581 15.554 9.60106 15.459 8.59006C15.4969 8.57463 15.5277 8.54547 15.5451 8.50841C15.5625 8.47136 15.5653 8.42912 15.553 8.39007L15.39 7.90105C15.3774 7.86297 15.3512 7.83086 15.3165 7.81087C15.2817 7.79088 15.2408 7.78441 15.2015 7.7927C15.1623 7.80099 15.1275 7.82347 15.1038 7.85583C15.08 7.88818 15.0691 7.92813 15.073 7.96805C15.184 9.13205 15.392 11.3791 15.398 11.6891V11.6811C15.395 11.6599 15.3878 11.6394 15.3769 11.621C15.366 11.6026 15.3516 11.5865 15.3344 11.5736C15.3173 11.5607 15.2978 11.5514 15.2771 11.5461C15.2563 11.5407 15.2347 11.5395 15.2135 11.5426C15.1923 11.5456 15.1719 11.5527 15.1535 11.5637C15.135 11.5746 15.1189 11.589 15.106 11.6061C15.0932 11.6233 15.0838 11.6428 15.0785 11.6635C15.0732 11.6843 15.072 11.7058 15.075 11.7271C15.123 12.0601 15.244 12.6341 15.525 12.7271C15.5531 12.7364 15.5824 12.7412 15.612 12.7411C15.6555 12.74 15.6984 12.73 15.7379 12.7118C15.7775 12.6936 15.8129 12.6674 15.842 12.6351C16.027 12.3919 16.1628 12.1151 16.242 11.8201C16.266 11.7521 16.294 11.6721 16.321 11.6041C16.471 11.8221 16.732 12.0951 16.996 12.0731C17.0804 12.0639 17.1597 12.0282 17.2224 11.971C17.2852 11.9139 17.3281 11.8382 17.345 11.7551C17.4185 11.0783 17.4165 10.3954 17.339 9.71906C17.476 9.91206 17.614 10.1091 17.745 10.3041C17.796 10.7921 17.832 11.2821 17.832 11.6841C17.8333 11.7261 17.8508 11.766 17.8808 11.7954C17.9108 11.8248 17.951 11.8416 17.993 11.8421Z" fill="#F5F5F5"/>
<path d="M19.231 10.9841C19.115 10.1231 18.954 9.12605 18.852 8.51405C18.8756 8.51992 18.9001 8.52036 18.9239 8.51534C18.9476 8.51031 18.9699 8.49997 18.989 8.48506C19.0061 8.47209 19.0205 8.45588 19.0313 8.43733C19.0422 8.41879 19.0492 8.39828 19.0521 8.377C19.055 8.35572 19.0536 8.33408 19.0481 8.31332C19.0426 8.29257 19.0331 8.27311 19.02 8.25606L18.72 7.86906C18.6978 7.84011 18.6666 7.81943 18.6313 7.81033C18.596 7.80123 18.5586 7.80423 18.5252 7.81886C18.4918 7.83349 18.4643 7.8589 18.447 7.89102C18.4298 7.92315 18.4237 7.96013 18.43 7.99606C18.43 8.01306 18.724 9.68705 18.904 11.0271C18.9482 11.2385 18.947 11.4569 18.9007 11.6679C18.8543 11.8789 18.7638 12.0776 18.635 12.2511C18.5589 12.3319 18.4651 12.394 18.3611 12.4327C18.257 12.4714 18.1454 12.4855 18.035 12.4741C17.9918 12.4713 17.9492 12.4858 17.9167 12.5144C17.8841 12.543 17.8643 12.5833 17.8615 12.6266C17.8587 12.6698 17.8732 12.7124 17.9018 12.7449C17.9304 12.7774 17.9708 12.7973 18.014 12.8001H18.096C18.2412 12.803 18.3855 12.7753 18.5192 12.7186C18.6529 12.6619 18.7732 12.5775 18.872 12.4711C19.0361 12.264 19.1531 12.0238 19.2151 11.7671C19.2771 11.5103 19.2825 11.2431 19.231 10.9841Z" fill="#F5F5F5"/>
<path d="M17.437 12.059C17.4084 12.0908 17.3933 12.1324 17.3948 12.1751C17.3963 12.2178 17.4143 12.2583 17.445 12.288C17.4548 12.2971 17.4618 12.309 17.465 12.322C17.4603 12.3362 17.4517 12.3487 17.44 12.358C17.4094 12.3886 17.3922 12.4302 17.3922 12.4735C17.3922 12.5168 17.4094 12.5584 17.44 12.589C17.4706 12.6196 17.5122 12.6368 17.5555 12.6368C17.5988 12.6368 17.6404 12.6196 17.671 12.589C17.7095 12.5537 17.7401 12.5107 17.7607 12.4628C17.7814 12.4149 17.7917 12.3632 17.791 12.311C17.785 12.2089 17.739 12.1133 17.663 12.045C17.631 12.0173 17.5894 12.0033 17.5472 12.0059C17.5049 12.0085 17.4654 12.0276 17.437 12.059Z" fill="#F5F5F5"/>
<path d="M16.861 15.6361H15.719V15.4731C15.719 15.4298 15.7018 15.3884 15.6713 15.3578C15.6407 15.3273 15.5992 15.3101 15.556 15.3101C15.5128 15.3101 15.4713 15.3273 15.4407 15.3578C15.4102 15.3884 15.393 15.4298 15.393 15.4731V15.6361H6.748C7.16529 15.9654 7.6846 16.1383 8.216 16.1251H15.391V16.451C15.391 16.4725 15.3952 16.4937 15.4034 16.5134C15.4116 16.5332 15.4236 16.5512 15.4387 16.5663C15.4539 16.5815 15.4718 16.5935 15.4916 16.6017C15.5114 16.6098 15.5326 16.6141 15.554 16.6141H16.854C16.9838 16.6141 17.1083 16.5625 17.2001 16.4707C17.2919 16.3789 17.3435 16.2544 17.3435 16.1246C17.3435 15.9947 17.2919 15.8702 17.2001 15.7784C17.1083 15.6866 16.9838 15.6351 16.854 15.6351L16.861 15.6361ZM16.861 16.2881H15.719V16.1251H17.019L16.99 16.037C17.0082 16.0628 17.0183 16.0935 17.019 16.1251C17.0195 16.1678 17.0033 16.209 16.9737 16.2399C16.9442 16.2707 16.9037 16.2888 16.861 16.2901V16.2881Z" fill="#F5F5F5"/>
</g>
<defs>
<clipPath id="clip0_27_121">
<rect width="24" height="24" fill="white"/>
</clipPath>
</defs>
</svg>
